<svg width="297" height="67" xmlns="http://www.w3.org/2000/svg" xmlns:xlink="http://www.w3.org/1999/xlink" overflow="hidden"><defs><clipPath id="clip0"><rect x="491" y="326" width="297" height="67"/></clipPath></defs><g clip-path="url(#clip0)" transform="translate(-491 -326)"><path d="M524.726 326C506.227 326.006 491.235 341.006 491.241 359.505 491.246 378.004 506.247 392.996 524.746 392.99 543.24 392.984 558.231 377.99 558.231 359.495 558.231 340.996 543.234 326 524.736 326 524.732 326 524.729 326 524.726 326ZM547.099 381.858 536.297 378.861C525.621 385.234 511.8 381.747 505.426 371.071 499.052 360.395 502.54 346.574 513.216 340.2 523.892 333.826 537.713 337.314 544.087 347.99 548.357 355.143 548.328 364.071 544.011 371.196Z" fill="#FFFFFF"/><path d="M524.726 344.566C516.475 344.573 509.792 351.267 509.799 359.517 509.802 362.232 510.543 364.895 511.945 367.219L509.897 374.274 517.021 372.275C524.085 376.528 533.259 374.248 537.511 367.184 541.763 360.12 539.483 350.947 532.419 346.695 530.097 345.296 527.437 344.557 524.726 344.556ZM524.726 367.139C520.504 367.134 517.086 363.707 517.091 359.485 517.097 355.263 520.524 351.845 524.746 351.851 528.964 351.856 532.38 355.277 532.38 359.495 532.38 363.717 528.958 367.139 524.736 367.139 524.732 367.139 524.729 367.139 524.726 367.139Z" fill="#FFFFFF"/><path d="M639.5 347.044 638.721 348.253C634.943 354.429 631.186 360.604 627.449 366.78 626.972 367.798 626.014 368.508 624.901 368.668 623.139 368.941 621.49 367.735 621.217 365.973 621.212 365.942 621.208 365.911 621.204 365.88 620.934 364.621 620.734 363.342 620.504 362.063 618.765 352.444 617.03 342.814 615.298 333.175 615.208 332.655 615.138 332.175 615.038 331.526L621.693 331.526C623.139 339.52 624.594 347.514 626.06 355.508L626.3 355.598C626.52 355.278 626.75 354.968 626.949 354.599 630.127 349.536 633.301 344.466 636.472 339.39 636.888 338.608 637.558 337.992 638.371 337.641 639.652 337.147 641.105 337.506 642.008 338.541 642.303 338.891 642.567 339.265 642.798 339.66 645.875 344.569 648.946 349.479 652.011 354.389 652.25 354.769 652.51 355.138 652.91 355.748 653.599 352.92 653.909 350.272 654.459 347.654 655.008 345.036 655.458 342.258 655.938 339.56 656.417 336.862 656.937 334.244 657.417 331.426 659.585 331.426 661.733 331.426 664.032 331.426 663.792 332.875 663.582 334.214 663.342 335.543 661.61 345.289 659.871 355.032 658.126 364.771 658.032 365.374 657.892 365.969 657.706 366.55 657.353 367.676 656.371 368.49 655.198 368.628 653.967 368.887 652.702 368.373 652.001 367.329 651.751 366.989 651.541 366.63 651.321 366.27L640.329 348.213C640.06 347.894 639.83 347.544 639.5 347.044Z" fill="#FFFFFF"/><path d="M705.051 368.208 698.526 368.208C698.456 365.271 698.526 362.353 698.526 359.315 698.056 359.315 697.657 359.195 697.257 359.195L676.073 359.195C675.693 359.195 675.323 359.255 674.824 359.285L674.824 368.179 668.279 368.179C668.279 367.919 668.279 367.679 668.279 367.429 668.279 361.214 668.179 355.008 668.279 348.793 668.437 340.125 674.896 332.868 683.487 331.706 684.692 331.541 685.908 331.461 687.124 331.466 691.881 331.466 696.647 331.466 701.414 331.466 702.956 331.324 704.387 332.277 704.851 333.754 704.975 334.193 705.029 334.648 705.011 335.103 705.011 337.312 705.011 339.52 705.011 341.728L705.011 368.219ZM698.396 338.001 697.097 338.001C693.859 338.001 690.622 337.951 687.384 338.001 686.039 338.022 684.699 338.182 683.387 338.481 679.992 339.141 677.138 341.427 675.753 344.596 675.096 346.18 674.756 347.878 674.754 349.592 674.754 350.532 674.754 351.471 674.754 352.5 675.273 352.5 675.643 352.6 676.013 352.6 683.061 352.6 690.106 352.6 697.147 352.6 697.547 352.6 697.946 352.52 698.356 352.48Z" fill="#FFFFFF"/><path d="M591.116 368.718C589.287 368.718 587.459 368.788 585.63 368.718 578.26 368.52 572.195 362.857 571.491 355.518 571.386 354.726 571.336 353.928 571.341 353.13 571.341 350.132 571.231 347.134 571.541 344.136 572.27 336.83 578.329 331.212 585.67 331.036 589.407 330.923 593.145 330.923 596.882 331.036 604.564 331.262 610.755 337.406 611.041 345.086 611.171 348.323 611.171 351.571 611.041 354.809 610.715 362.357 604.661 368.398 597.112 368.708 595.113 368.798 593.115 368.708 591.116 368.708ZM591.166 362.153 591.166 362.153C593.065 362.153 594.973 362.263 596.872 362.153 600.904 361.962 604.146 358.767 604.396 354.739 604.576 351.511 604.516 348.263 604.396 345.036 604.294 342.986 603.35 341.07 601.788 339.74 600.313 338.379 598.379 337.622 596.372 337.621 592.945 337.561 589.517 337.621 586.09 337.621 585.328 337.647 584.573 337.768 583.841 337.981 580.36 338.914 577.933 342.061 577.916 345.665 577.756 348.518 577.756 351.377 577.916 354.229 578.206 358.955 581.313 361.943 586.01 362.223 587.729 362.233 589.477 362.153 591.166 362.153Z" fill="#FFFFFF"/><path d="M787.769 337.961 787.769 331.456 758.351 331.456C758.081 331.456 757.812 331.456 757.552 331.456 755.907 331.519 754.575 332.812 754.464 334.454 754.439 334.91 754.439 335.367 754.464 335.823 754.464 343.151 754.464 350.505 754.464 357.886 754.454 358.687 754.484 359.487 754.554 360.284 754.758 362.797 756.092 365.08 758.181 366.49 759.959 367.703 762.076 368.323 764.227 368.258 771.695 368.258 779.166 368.258 786.64 368.258 787.01 368.258 787.38 368.258 787.799 368.199L787.799 361.733 764.976 361.733C764.519 361.747 764.062 361.73 763.607 361.683 761.759 361.464 761.049 360.684 761.049 358.845 761.049 357.007 761.049 355.258 761.049 353.46L784.812 353.46 784.812 346.625 761.039 346.625C761.039 344.1 761.039 341.578 761.039 339.06 761.02 338.697 761.02 338.334 761.039 337.971Z" fill="#FFFFFF"/><path d="M750.687 367.999C744.492 362.003 738.226 355.948 732.081 349.962 732.117 349.87 732.175 349.787 732.251 349.722L732.311 349.632C732.385 349.544 732.466 349.461 732.551 349.383L747.959 334.394 750.327 332.065C750.385 332.017 750.439 331.964 750.487 331.906 750.536 331.849 750.577 331.785 750.607 331.716 750.617 331.68 750.617 331.642 750.607 331.606 750.607 331.606 750.607 331.446 750.447 331.446 747.809 331.446 745.221 331.446 742.563 331.446 741.918 331.415 741.294 331.684 740.874 332.175 736.558 336.532 732.181 340.839 727.884 345.236 727.176 346.035 726.173 346.511 725.106 346.555L718.971 346.555 718.971 331.566 712.505 331.566 712.505 368.229 718.971 368.229 718.971 353.24 725.376 353.24C726.326 353.316 727.208 353.761 727.834 354.479 732.141 358.905 736.548 363.232 740.894 367.619 741.319 368.107 741.947 368.369 742.593 368.328 744.192 368.328 745.791 368.328 747.39 368.328L750.567 368.328C750.797 368.258 750.857 368.139 750.687 367.999Z" fill="#FFFFFF"/><path d="M578.006 388.214C575.408 388.214 573.569 386.905 573.529 384.956L575.338 384.956C575.448 385.955 576.207 386.955 578.006 386.955 579.635 386.955 580.604 386.115 580.604 384.956 580.604 381.788 573.609 383.817 573.609 379.45 573.609 377.512 575.338 376.193 577.896 376.193 580.454 376.193 581.973 377.422 582.183 379.19L580.324 379.19C580.032 378.075 578.96 377.349 577.816 377.492 576.427 377.492 575.338 378.111 575.338 379.38 575.338 382.378 582.333 380.519 582.333 384.876 582.313 386.565 580.804 388.214 578.006 388.214Z" fill="#FFFFFF"/><path d="M594.923 382.768 588.338 382.768 588.338 388.094 586.649 388.094 586.649 376.342 588.338 376.342 588.338 381.499 594.923 381.499 594.923 376.342 596.612 376.342 596.612 388.094 594.923 388.094Z" fill="#FFFFFF"/><path d="M608.963 385.486 603.327 385.486 602.328 388.094 600.469 388.094 605.136 376.412 607.084 376.412 611.741 388.094 609.962 388.094ZM606.145 378.301 603.807 384.237 608.463 384.237Z" fill="#FFFFFF"/><path d="M619.855 376.342C622.852 376.342 624.341 377.881 624.341 379.8 624.334 381.549 623.004 383.008 621.264 383.177L624.511 388.094 622.513 388.094 619.455 383.287 617.456 383.287 617.456 388.094 615.768 388.094 615.768 376.342ZM619.855 377.611 617.366 377.611 617.366 382.058 619.855 382.058C621.763 382.058 622.603 381.119 622.603 379.8 622.603 378.481 621.783 377.611 619.855 377.611Z" fill="#FFFFFF"/><path d="M635.773 377.592 630.497 377.592 630.497 381.519 635.213 381.519 635.213 382.768 630.497 382.768 630.497 386.815 635.773 386.815 635.773 388.074 628.778 388.074 628.778 376.322 635.773 376.322Z" fill="#FFFFFF"/><path d="M645.915 376.342 647.794 376.342 650.981 382.338 654.169 376.342 656.048 376.342 651.831 383.667 651.831 388.094 650.142 388.094 650.142 383.667Z" fill="#FFFFFF"/><path d="M665.541 388.214C661.903 388.214 659.045 385.735 659.045 382.218 659.045 378.701 661.903 376.223 665.541 376.223 669.178 376.223 672.036 378.701 672.036 382.218 672.036 385.735 669.198 388.214 665.541 388.214ZM665.541 386.885C668.123 386.835 670.176 384.701 670.126 382.119 670.077 379.537 667.943 377.484 665.361 377.533 662.814 377.582 660.775 379.661 660.774 382.208 660.67 384.689 662.597 386.785 665.079 386.889 665.232 386.895 665.387 386.894 665.54 386.885Z" fill="#FFFFFF"/><path d="M676.083 376.342 677.771 376.342 677.771 383.767C677.771 385.925 679.05 386.855 680.959 386.855 682.868 386.855 684.127 385.925 684.127 383.767L684.127 376.332 685.815 376.332 685.815 383.767C685.815 386.815 683.607 388.214 680.939 388.214 678.271 388.214 676.083 386.815 676.083 383.767Z" fill="#FFFFFF"/><path d="M694.669 376.342C697.667 376.342 699.155 377.881 699.155 379.8 699.148 381.549 697.818 383.008 696.078 383.177L699.325 388.094 697.327 388.094 694.249 383.287 692.251 383.287 692.251 388.094 690.562 388.094 690.562 376.342ZM694.669 377.611 692.181 377.611 692.181 382.058 694.669 382.058C696.577 382.058 697.407 381.119 697.407 379.8 697.407 378.481 696.597 377.611 694.669 377.611Z" fill="#FFFFFF"/><path d="M710.437 376.342 712.126 376.342 712.126 388.094 710.437 388.094Z" fill="#FFFFFF"/><path d="M727.015 376.322 727.015 388.094 725.376 388.094 718.541 378.771 718.541 388.124 716.852 388.124 716.852 376.322 718.541 376.322 725.376 385.665 725.376 376.322Z" fill="#FFFFFF"/><path d="M735.848 388.214C733.25 388.214 731.411 386.905 731.371 384.956L733.17 384.956C733.29 385.955 734.049 386.955 735.848 386.955 737.477 386.955 738.446 386.115 738.446 384.956 738.446 381.788 731.451 383.817 731.451 379.45 731.451 377.512 733.17 376.193 735.738 376.193 738.306 376.193 739.815 377.422 740.025 379.19L738.166 379.19C737.875 378.075 736.802 377.349 735.658 377.492 734.269 377.492 733.17 378.111 733.17 379.38 733.17 382.378 740.165 380.519 740.165 384.876 740.155 386.565 738.646 388.214 735.848 388.214Z" fill="#FFFFFF"/><path d="M744.492 376.342 746.18 376.342 746.18 388.094 744.492 388.094Z" fill="#FFFFFF"/><path d="M761.519 379.77 759.68 379.77C759.039 378.389 757.624 377.535 756.103 377.611 753.556 377.73 751.588 379.891 751.706 382.438 751.817 384.819 753.722 386.724 756.103 386.835 758.292 386.914 760.137 385.216 760.24 383.027L755.553 383.027 755.553 381.768 761.879 381.768 761.879 382.948C761.642 385.949 759.113 388.25 756.103 388.204 752.792 388.204 750.107 385.519 750.107 382.208 750.107 378.897 752.792 376.213 756.103 376.213 758.484 376.114 760.664 377.545 761.519 379.77Z" fill="#FFFFFF"/><path d="M772.341 382.768 765.756 382.768 765.756 388.094 764.067 388.094 764.067 376.342 765.756 376.342 765.756 381.499 772.341 381.499 772.341 376.342 774.03 376.342 774.03 388.094 772.341 388.094Z" fill="#FFFFFF"/><path d="M777.907 376.342 786.66 376.342 786.66 377.592 783.133 377.592 783.133 388.094 781.444 388.094 781.444 377.592 777.907 377.592Z" fill="#FFFFFF"/></g></svg>