<svg width="297" height="67" xmlns="http://www.w3.org/2000/svg" xmlns:xlink="http://www.w3.org/1999/xlink" overflow="hidden"><defs><clipPath id="clip0"><rect x="491" y="326" width="297" height="67"/></clipPath></defs><g clip-path="url(#clip0)" transform="translate(-491 -326)"><path d="M524.726 326C506.227 326 491.231 340.996 491.231 359.495 491.231 377.994 506.227 392.99 524.726 392.99 543.224 392.99 558.221 377.994 558.221 359.495 558.221 340.996 543.224 326 524.726 326ZM547.099 381.858 536.287 378.861C525.599 385.246 511.758 381.759 505.372 371.071 498.987 360.383 502.474 346.542 513.162 340.156 523.85 333.77 537.691 337.258 544.077 347.946 548.358 355.112 548.329 364.058 544.001 371.196Z" fill="#231F20"/><path d="M524.726 344.566C516.475 344.573 509.792 351.267 509.799 359.517 509.802 362.232 510.543 364.895 511.945 367.219L509.947 374.274 517.061 372.275C524.125 376.528 533.299 374.248 537.551 367.184 541.803 360.12 539.523 350.947 532.459 346.695 530.139 345.298 527.483 344.559 524.776 344.556ZM524.726 367.139C520.504 367.139 517.081 363.717 517.081 359.495 517.081 355.273 520.504 351.851 524.726 351.851 528.948 351.851 532.37 355.273 532.37 359.495 532.375 363.711 528.962 367.134 524.746 367.139 524.739 367.139 524.732 367.139 524.726 367.139Z" fill="#231F20"/><path d="M639.5 347.044C639.17 347.564 638.93 347.904 638.721 348.253 634.943 354.429 631.173 360.608 627.409 366.79 626.925 367.806 625.965 368.514 624.851 368.678 623.083 368.947 621.432 367.731 621.164 365.963 621.16 365.939 621.157 365.915 621.154 365.89 620.894 364.631 620.684 363.352 620.454 362.073 618.729 352.454 616.997 342.824 615.258 333.185 615.158 332.665 615.088 332.185 614.998 331.536L621.643 331.536C623.102 339.53 624.558 347.524 626.01 355.518L626.25 355.608C626.47 355.288 626.7 354.978 626.909 354.609 630.087 349.546 633.261 344.476 636.432 339.4 636.844 338.619 637.511 338.002 638.321 337.651 639.605 337.156 641.062 337.515 641.968 338.551 642.259 338.903 642.523 339.277 642.758 339.67L651.961 354.399C652.201 354.779 652.46 355.148 652.86 355.758 653.55 352.93 653.919 350.282 654.419 347.664 654.919 345.046 655.418 342.268 655.888 339.57 656.357 336.872 656.887 334.254 657.367 331.436 659.535 331.436 661.683 331.436 663.992 331.436 663.752 332.885 663.542 334.224 663.302 335.553 661.564 345.299 659.822 355.042 658.076 364.781 657.987 365.385 657.847 365.98 657.656 366.56 657.304 367.683 656.327 368.496 655.158 368.638 653.924 368.898 652.656 368.385 651.951 367.339 651.711 366.999 651.501 366.64 651.281 366.28 647.611 360.284 643.947 354.266 640.289 348.223 640.06 347.894 639.82 347.544 639.5 347.044Z" fill="#231F20"/><path d="M705.051 368.208 698.526 368.208C698.456 365.271 698.526 362.353 698.476 359.315 698.006 359.315 697.617 359.195 697.217 359.195L676.063 359.195C675.693 359.195 675.323 359.255 674.814 359.285L674.814 368.179 668.279 368.179C668.279 367.919 668.279 367.679 668.279 367.429 668.279 361.214 668.179 355.008 668.279 348.793 668.436 340.128 674.89 332.873 683.477 331.706 684.682 331.541 685.898 331.461 687.115 331.466 691.881 331.466 696.647 331.466 701.404 331.466 702.948 331.323 704.383 332.276 704.851 333.754 704.97 334.194 705.024 334.648 705.011 335.103 705.011 337.312 705.011 339.52 705.011 341.728L705.011 368.219ZM698.406 338.001 697.107 338.001C693.879 338.001 690.632 337.951 687.404 338.001 686.059 338.022 684.719 338.183 683.407 338.481 680.014 339.144 677.161 341.429 675.773 344.596 675.116 346.18 674.776 347.878 674.774 349.592 674.774 350.532 674.774 351.471 674.774 352.5 675.293 352.5 675.663 352.6 676.033 352.6 683.081 352.6 690.126 352.6 697.167 352.6 697.567 352.6 697.956 352.52 698.366 352.48Z" fill="#231F20"/><path d="M591.116 368.718C589.287 368.718 587.449 368.788 585.62 368.718 578.242 368.541 572.156 362.884 571.441 355.538 571.341 354.746 571.291 353.948 571.291 353.15 571.291 350.152 571.181 347.154 571.491 344.156 572.225 336.848 578.287 331.231 585.63 331.056 589.357 330.946 593.105 330.946 596.832 331.056 604.516 331.277 610.71 337.423 610.991 345.106 611.121 348.343 611.131 351.591 610.991 354.828 610.665 362.377 604.611 368.418 597.062 368.728 595.063 368.818 593.065 368.728 591.116 368.728ZM591.116 362.153 591.116 362.153C593.025 362.153 594.933 362.263 596.832 362.153 600.86 361.957 604.096 358.764 604.346 354.739 604.526 351.511 604.476 348.263 604.346 345.036 604.249 342.985 603.304 341.067 601.738 339.74 600.265 338.381 598.336 337.625 596.332 337.621 592.905 337.561 589.477 337.621 586.05 337.621 585.288 337.646 584.533 337.766 583.802 337.981 580.32 338.914 577.893 342.061 577.876 345.665 577.711 348.517 577.711 351.377 577.876 354.229 578.166 358.955 581.273 361.943 585.97 362.223 587.729 362.233 589.447 362.153 591.156 362.153Z" fill="#231F20"/><path d="M787.759 337.961 787.759 331.456 758.351 331.456C758.092 331.456 757.822 331.456 757.552 331.456 755.909 331.523 754.58 332.814 754.464 334.454 754.464 334.903 754.464 335.363 754.464 335.823L754.464 357.886C754.464 358.686 754.464 359.495 754.564 360.284 754.764 362.785 756.082 365.062 758.151 366.48 759.93 367.691 762.046 368.31 764.197 368.248 771.671 368.248 779.142 368.248 786.61 368.248 786.98 368.248 787.35 368.248 787.769 368.189L787.769 361.723 764.966 361.723C764.509 361.737 764.052 361.72 763.597 361.673 761.759 361.454 761.049 360.674 761.039 358.835L761.039 353.45 784.792 353.45 784.792 346.615 761.039 346.615 761.039 339.05C761.016 338.688 761.016 338.324 761.039 337.961Z" fill="#231F20"/><path d="M750.677 367.999C744.492 362.003 738.226 355.948 732.071 349.962 732.113 349.87 732.174 349.789 732.251 349.722 732.264 349.688 732.284 349.657 732.311 349.632 732.382 349.544 732.459 349.461 732.541 349.383L747.959 334.394 750.327 332.065 750.487 331.906C750.53 331.846 750.566 331.782 750.597 331.716 750.612 331.681 750.612 331.641 750.597 331.606 750.609 331.53 750.557 331.458 750.481 331.446 750.466 331.444 750.452 331.444 750.437 331.446 747.809 331.446 745.221 331.446 742.553 331.446 741.908 331.415 741.284 331.684 740.864 332.175 736.548 336.532 732.181 340.839 727.874 345.236 727.171 346.036 726.171 346.513 725.106 346.555L718.971 346.555 718.971 331.566 712.506 331.566 712.506 368.229 718.971 368.229 718.971 353.24 725.356 353.24C726.303 353.316 727.182 353.761 727.804 354.479 732.121 358.905 736.518 363.232 740.864 367.619 741.29 368.106 741.918 368.368 742.563 368.328 744.162 368.328 745.761 368.328 747.37 368.328L750.547 368.328C750.797 368.258 750.847 368.139 750.677 367.999Z" fill="#231F20"/><path d="M577.996 388.214C575.398 388.214 573.569 386.905 573.529 384.956L575.288 384.956C575.398 385.955 576.157 386.955 577.956 386.955 579.595 386.955 580.554 386.115 580.554 384.956 580.554 381.788 573.559 383.817 573.559 379.45 573.559 377.512 575.288 376.193 577.846 376.193 580.404 376.193 581.933 377.422 582.133 379.19L580.284 379.19C579.997 378.077 578.927 377.35 577.786 377.492 576.397 377.492 575.298 378.111 575.298 379.38 575.298 382.378 582.293 380.519 582.293 384.876 582.283 386.565 580.804 388.214 577.996 388.214Z" fill="#231F20"/><path d="M594.913 382.768 588.328 382.768 588.328 388.094 586.639 388.094 586.639 376.342 588.328 376.342 588.328 381.499 594.913 381.499 594.913 376.342 596.602 376.342 596.602 388.094 594.913 388.094Z" fill="#231F20"/><path d="M608.963 385.486 603.317 385.486 602.318 388.094 600.539 388.094 605.216 376.412 607.214 376.412 611.871 388.094 610.092 388.094ZM606.135 378.301 603.807 384.237 608.473 384.237Z" fill="#231F20"/><path d="M619.845 376.342C622.842 376.342 624.341 377.881 624.341 379.8 624.329 381.55 622.996 383.008 621.254 383.177L624.501 388.094 622.503 388.094 619.425 383.287 617.427 383.287 617.427 388.094 615.738 388.094 615.738 376.342ZM619.845 377.611 617.367 377.611 617.367 382.058 619.845 382.058C621.763 382.058 622.593 381.119 622.593 379.8 622.593 378.481 621.773 377.611 619.845 377.611Z" fill="#231F20"/><path d="M635.763 377.592 630.497 377.592 630.497 381.519 635.243 381.519 635.243 382.768 630.537 382.768 630.537 386.815 635.803 386.815 635.803 388.074 628.808 388.074 628.808 376.322 635.803 376.322Z" fill="#231F20"/><path d="M645.915 376.342 647.784 376.342 650.971 382.338 654.169 376.342 656.038 376.342 651.831 383.667 651.831 388.094 650.142 388.094 650.142 383.667Z" fill="#231F20"/><path d="M665.541 388.214C661.903 388.214 659.045 385.735 659.045 382.218 659.045 378.701 661.903 376.223 665.541 376.223 669.178 376.223 672.026 378.701 672.026 382.218 672.026 385.735 669.218 388.214 665.541 388.214ZM665.541 386.885C668.123 386.835 670.176 384.701 670.126 382.119 670.077 379.537 667.943 377.484 665.361 377.533 662.814 377.582 660.775 379.661 660.774 382.208 660.67 384.689 662.597 386.785 665.079 386.889 665.233 386.895 665.387 386.894 665.541 386.885Z" fill="#231F20"/><path d="M676.073 376.342 677.761 376.342 677.761 383.767C677.761 385.925 679.041 386.855 680.949 386.855 682.858 386.855 684.127 385.925 684.127 383.767L684.127 376.332 685.815 376.332 685.815 383.767C685.815 386.815 683.607 388.214 680.929 388.214 678.251 388.214 676.073 386.815 676.073 383.767Z" fill="#231F20"/><path d="M694.659 376.342C697.707 376.342 699.146 377.881 699.146 379.8 699.138 381.549 697.808 383.008 696.068 383.177L699.315 388.094 697.317 388.094 694.199 383.287 692.201 383.287 692.201 388.094 690.512 388.094 690.512 376.342ZM694.659 377.611 692.201 377.611 692.201 382.058 694.689 382.058C696.597 382.058 697.437 381.119 697.437 379.8 697.437 378.481 696.587 377.611 694.659 377.611Z" fill="#231F20"/><path d="M710.427 376.342 712.116 376.342 712.116 388.094 710.427 388.094Z" fill="#231F20"/><path d="M727.015 376.322 727.015 388.094 725.326 388.094 718.531 378.741 718.531 388.094 716.842 388.094 716.842 376.322 718.531 376.322 725.326 385.665 725.326 376.322Z" fill="#231F20"/><path d="M735.838 388.214C733.24 388.214 731.411 386.905 731.371 384.956L733.17 384.956C733.28 385.955 734.039 386.955 735.838 386.955 737.477 386.955 738.436 386.115 738.436 384.956 738.436 381.788 731.441 383.817 731.441 379.45 731.441 377.512 733.17 376.193 735.728 376.193 738.286 376.193 739.815 377.422 740.015 379.19L738.166 379.19C737.879 378.077 736.81 377.35 735.668 377.492 734.279 377.492 733.18 378.111 733.18 379.38 733.18 382.378 740.175 380.519 740.175 384.876 740.165 386.565 738.646 388.214 735.838 388.214Z" fill="#231F20"/><path d="M744.482 376.342 746.16 376.342 746.16 388.094 744.472 388.094Z" fill="#231F20"/><path d="M761.519 379.77 759.68 379.77C759.037 378.391 757.623 377.538 756.103 377.611 753.556 377.73 751.588 379.891 751.706 382.438 751.817 384.819 753.722 386.724 756.103 386.835 758.288 386.908 760.127 385.212 760.23 383.027L755.543 383.027 755.543 381.768 761.869 381.768 761.869 382.948C761.637 385.947 759.112 388.249 756.103 388.204 752.792 388.204 750.107 385.519 750.107 382.208 750.107 378.897 752.792 376.213 756.103 376.213 758.484 376.117 760.661 377.547 761.519 379.77Z" fill="#231F20"/><path d="M772.301 382.768 765.716 382.768 765.716 388.094 764.027 388.094 764.027 376.342 765.716 376.342 765.716 381.499 772.301 381.499 772.301 376.342 773.99 376.342 773.99 388.094 772.301 388.094Z" fill="#231F20"/><path d="M777.897 376.342 786.65 376.342 786.65 377.592 783.133 377.592 783.133 388.094 781.444 388.094 781.444 377.592 777.897 377.592Z" fill="#231F20"/></g></svg>